<svg width="512" height="512" viewBox="0 0 512 512" fill="none" xmlns="http://www.w3.org/2000/svg">
<rect width="512" height="512" rx="80" fill="url(#paint0_linear_5_92)"/>
<path fill-rule="evenodd" clip-rule="evenodd" d="M395 245C395 264.698 391.12 284.204 383.582 302.403C376.044 320.601 364.995 337.137 351.066 351.066C337.137 364.995 320.601 376.044 302.403 383.582C284.204 391.12 264.698 395 245 395C225.302 395 205.796 391.12 187.597 383.582C169.399 376.044 152.863 364.995 138.934 351.066C125.005 337.137 113.956 320.601 106.418 302.403C98.8799 284.204 95 264.698 95 245C95 205.218 110.804 167.064 138.934 138.934C167.064 110.804 205.218 95 245 95C284.782 95 322.936 110.804 351.066 138.934C379.196 167.064 395 205.218 395 245ZM309.14 328.906C290.38 342.969 269 350 245 350C221.02 350 199.65 342.969 180.89 328.906C165.082 317.057 152.917 302.434 144.394 285.038C142.074 280.301 145.686 275 150.961 275H339.049C344.321 275 347.933 280.297 345.617 285.033C337.108 302.431 324.949 317.056 309.14 328.906Z" fill="white"/>
<path d="M417 417L377 377" stroke="white" stroke-width="30" stroke-linecap="round"/>
<defs>
<linearGradient id="paint0_linear_5_92" x1="256" y1="0" x2="256" y2="512" gradientUnits="userSpaceOnUse">
<stop stop-color="#31A1EE"/>
<stop offset="1" stop-color="#7A2BE8"/>
</linearGradient>
</defs>
</svg>
